<?xml version="1.0" encoding="UTF-8" standalone="no"?>
<!-- Generator: Adobe Illustrator 19.0.0, SVG Export Plug-In . SVG Version: 6.00 Build 0)  -->

<svg
   xmlns:dc="http://purl.org/dc/elements/1.1/"
   xmlns:cc="http://creativecommons.org/ns#"
   xmlns:rdf="http://www.w3.org/1999/02/22-rdf-syntax-ns#"
   xmlns:svg="http://www.w3.org/2000/svg"
   xmlns="http://www.w3.org/2000/svg"
   xmlns:sodipodi="http://sodipodi.sourceforge.net/DTD/sodipodi-0.dtd"
   xmlns:inkscape="http://www.inkscape.org/namespaces/inkscape"
   version="1.1"
   id="Layer_1"
   x="0px"
   y="0px"
   viewBox="0 0 1000 385"
   xml:space="preserve"
   inkscape:version="0.91 r13725"
   sodipodi:docname="logo2perfect_small_docresize.svg"
   width="1000"
   height="385"><metadata
     id="metadata83"><rdf:RDF><cc:Work
         rdf:about=""><dc:format>image/svg+xml</dc:format><dc:type
           rdf:resource="http://purl.org/dc/dcmitype/StillImage" /><dc:title></dc:title></cc:Work></rdf:RDF></metadata><defs
     id="defs81" /><sodipodi:namedview
     pagecolor="#ffffff"
     bordercolor="#666666"
     borderopacity="1"
     objecttolerance="10"
     gridtolerance="10"
     guidetolerance="10"
     inkscape:pageopacity="0"
     inkscape:pageshadow="2"
     inkscape:window-width="1071"
     inkscape:window-height="689"
     id="namedview79"
     showgrid="false"
     fit-margin-top="0"
     fit-margin-left="0"
     fit-margin-right="0"
     fit-margin-bottom="0"
     inkscape:zoom="0.2979798"
     inkscape:cx="499"
     inkscape:cy="193"
     inkscape:window-x="492"
     inkscape:window-y="256"
     inkscape:window-maximized="0"
     inkscape:current-layer="Layer_1" /><style
     type="text/css"
     id="style3">
	.st0{fill:#FEFEFE;}
	.st1{fill:#5CCDF9;}
	.st2{fill:#030303;}
	.st3{fill:#8A8A8A;}
	.st4{fill:#F4A9B7;}
</style><g
     id="g5"
     transform="translate(193,-204)"><g
       id="g7"><path
         class="st0"
         d="m -193,204 c 333.3,0 666.7,0 1000,0 0,128.3 0,256.7 0,385 -333.3,0 -666.7,0 -1000,0 0,-128.3 0,-256.7 0,-385 z m 939.4,284.3 c -0.3,-0.2 -0.5,-0.5 -0.8,-0.7 -0.1,-2 0,-4.3 -2.9,-4.3 -2.8,0 -2.3,2.3 -2.6,4 -0.3,2.1 -0.6,4.3 -0.8,6.4 -0.7,6.2 -1.4,12.3 -2,18.4 2.2,0.6 3.8,0.9 5.5,-0.4 0.4,-3.5 0.8,-7.1 1.3,-10.7 1,-8.2 4,-11.6 11.1,-12.8 0.6,-1.5 1.2,-3 0.2,-4.8 -4.4,-0.9 -6.5,2.4 -9,4.9 z m -557.6,-85 C 133.8,361 79.2,319 24.5,276.9 c -24.4,18.6 -48.7,37.2 -73.8,56.4 0,-11.1 0,-21 0,-31.1 -11.7,0 -22.9,0 -34.7,0 0,2.1 0,3.9 0,5.6 0,15.8 -0.1,31.7 0.1,47.5 0,3.4 -1.1,5.5 -3.7,7.5 -15.7,11.8 -31.2,23.8 -47,35.6 -3.4,2.5 -4.3,4.3 -0.9,7.7 5.8,5.7 11.2,11.9 16.6,18 1.8,2.1 3.2,2.4 5.4,0.7 5.3,-4 10.7,-7.9 16.2,-11.8 4.1,-2.9 8.4,-5.5 13.5,-8.8 0,36.4 0,71.3 0,106.4 73.5,0 146.5,0 220.3,0 0,-34.6 0,-68.9 0,-103.7 10.9,6.2 19.7,13.8 29.8,20.5 7.4,-8 14.8,-15.9 22.5,-24.1 z m 416.7,38.5 c 0,-43.5 0,-86.5 0,-129.6 -12,0 -23.7,0 -35.9,0 0,16.5 0,32.9 0,49.4 -15.5,0 -30.4,0 -46,0 0,-16.6 0,-32.9 0,-49.2 -12.2,0 -23.8,0 -35.4,0 0,43.3 0,86.3 0,129.2 11.9,0 23.5,0 35.6,0 0,-16.3 0,-32.4 0,-48.4 15.5,0 30.6,0 46.1,0 0,16.4 0,32.5 0,48.6 12.1,0 23.7,0 35.6,0 z m 68.2,-39.9 c 6.1,0 11.8,0.2 17.4,-0.1 3.2,-0.2 5.1,0.8 6.6,3.8 6,11.1 12.3,22.1 18.5,33.1 0.8,1.5 1.2,3.4 3.8,3.4 12.1,-0.1 24.2,0 37.1,0 -10.3,-18.2 -20.3,-35.8 -30.3,-53.4 1.1,-0.9 2,-1.7 2.9,-2.4 13.1,-11.2 17.3,-27.5 11.6,-44.4 -5,-14.9 -22.4,-29.2 -37.2,-29.4 -21.7,-0.4 -43.3,-0.1 -65,0 -0.3,0 -0.5,0.3 -0.7,0.4 0,43.1 0,86.2 0,129.1 12,0 23.6,0 35.3,0 0,-13.6 0,-26.5 0,-40.1 z M 382,441.6 c 12.1,0 23.6,0 35.6,0 0,-32.6 0,-64.8 0,-97.4 11,0 21.7,0 32.3,0 2.5,0 5.2,-0.3 5.3,-3.2 0.3,-9.6 0.1,-19.1 0.1,-28.6 -37.4,0 -74.2,0 -111.2,0 0,9.4 0,18.6 0,27.7 0,2.9 1.6,4.1 4.4,4.1 3.7,0 7.3,0 11,0 7.4,0 14.9,0 22.5,0 0,32.8 0,64.9 0,97.4 z M 260.8,546.9 c 0,-99.4 0,-198.3 0,-297.2 -1.7,0 -3.2,-0.5 -4.7,0.4 0,98.9 0,197.8 0,296.9 1.7,-0.1 3.1,-0.1 4.7,-0.1 z m 230.8,-62.1 c -2.9,-1 -6.3,0.1 -9.5,-1 -4.9,-1.7 -9.3,-0.3 -12.6,3.6 -2.8,3.3 -3.5,7.2 -1.5,11.2 2.5,5 7.1,4.6 11.6,3.7 0.1,1.8 -0.1,3.2 -1,4.6 -4.3,0.2 -8.7,0 -12.5,2.4 -2.4,1.5 -4,3.6 -3.9,6.5 0.2,3 2.2,4.9 4.8,5.9 4.5,1.8 9.2,1.7 13.6,-0.2 6.1,-2.6 8,-8.1 4.7,-13.8 -1.9,-3.3 -1.9,-6.2 0.2,-9.3 2.7,-4 1.9,-9.7 6.5,-12.8 0,0 -0.2,-0.2 -0.4,-0.8 z m 139.1,-0.1 c -4.5,0.3 -9.1,-1.5 -13.8,-1.4 -6.5,0.1 -11.3,5.9 -10.7,12 0.6,5.9 4.6,8.3 11.7,7.1 0.2,0 0.5,0.2 0.9,0.3 0.1,1.4 0.4,2.9 -0.7,4.3 -4.3,0 -8.7,0 -12.6,2.3 -2.6,1.5 -4.3,3.8 -4,6.9 0.3,2.9 2.3,4.7 5,5.7 4.2,1.5 8.5,1.6 12.7,-0.1 6.6,-2.6 8.7,-8.3 5.1,-14.5 -1.7,-3 -1.8,-5.7 0.1,-8.4 2.8,-4.1 1.8,-10.1 6.7,-13.2 0,0 -0.2,-0.2 -0.4,-1 z m 57.4,3.3 c 0.7,-6.1 1.3,-11.5 1.8,-16.8 -2.3,-0.3 -3.9,-0.8 -5.6,0.5 -1.6,13.4 -3.3,27 -4.9,40.5 4.1,1.3 5.9,0.2 6.2,-3.6 0.2,-2.8 0.8,-5.6 1,-8.4 0.3,-4 1.9,-7.4 4.8,-10.1 1.6,-1.5 3.5,-2.8 5.8,-2 2.7,1 2.1,3.5 2,5.6 -0.5,6.1 -1.3,12.2 -1.9,18.2 2,1.1 3.7,1 5.5,0 0.9,-6.9 2.3,-13.7 2.2,-20.7 -0.1,-7.1 -5.2,-10.1 -11.5,-6.9 -1.8,1 -3.3,2.3 -5.4,3.7 z m -347.6,15.9 c -3.9,2.7 -3.2,4.7 -0.1,6.7 6.3,4.2 15.2,2.8 19.8,-3.2 5.4,-7 3.5,-14.3 -4.5,-17.8 -1.7,-0.7 -3.4,-1.3 -5,-2.1 -2.3,-1.1 -3.8,-2.8 -3.2,-5.6 0.6,-2.6 1.9,-4.6 4.8,-5.1 2.5,-0.5 5.1,-0.5 7.2,1.1 3,2.3 4.4,0.9 5.4,-1.9 -4.3,-4.6 -9.3,-5.9 -14.9,-3.8 -5.1,1.9 -8,6.4 -8.1,12 -0.1,6.5 4.5,8.2 9.3,10 5.8,2.1 7.5,5.3 5.4,9.6 -2,4 -7.3,5.3 -11.7,2.9 -1.5,-0.8 -2.8,-1.8 -4.4,-2.8 z m 222.8,-27.1 c -1.4,12.3 -2.8,23.9 -4.2,35.4 2.3,0.6 3.9,0.8 5.8,-0.2 1.5,-11.4 3,-23.1 4.4,-34.7 2.9,-1 5.6,-0.6 8.2,-0.5 3.8,0.1 4.5,-1.6 3.6,-5.3 -8.9,0 -17.7,-0.1 -26.5,0 -3.9,0 -2.8,2.6 -2.4,5.2 3.6,0.1 6.9,0.1 11.1,0.1 z m -122.7,35.4 c 0.3,-2.2 0.5,-4.2 0.8,-6.1 0.6,-4.4 0.2,-9.1 3.1,-12.9 2.1,-2.8 4.4,-6.4 8.3,-4.9 3.9,1.4 2,5.4 1.8,8.4 -0.4,5.2 -1.7,10.4 -1.5,15.7 2.5,0.3 5.1,1.3 5.6,-1.9 0.9,-6.6 1.9,-13.2 2,-19.8 0.1,-6.3 -4.9,-9 -10.8,-6.7 -2.5,1 -4.2,3.1 -6.2,4.8 -1.2,-1.2 -0.5,-2.4 -0.7,-3.5 -0.3,-1.4 -1.3,-1.8 -2.5,-1.9 -1.3,0 -2.2,0.6 -2.3,2 -1,8.9 -2.1,17.7 -3.1,26.5 1.9,1.2 3.5,1 5.5,0.3 z m 134.5,-11.4 c 0.1,4.6 1.4,8.6 5.7,10.8 4.4,2.3 8.7,1.5 12.7,-1.1 5.6,-3.7 8.8,-12.4 7,-19 -1.8,-6.8 -8,-10.1 -14.7,-7.7 -6.4,2.3 -10.8,9.2 -10.7,17 z m -144,-5.9 c 0.2,-4.3 -1.4,-8.4 -5.9,-10.6 -4.5,-2.2 -8.8,-1.3 -12.7,1.6 -5.4,4 -7.4,9.8 -7,16.2 0.2,4.3 2,8.1 6.4,9.9 4.6,1.9 8.9,0.9 12.7,-2 4.5,-3.7 6.5,-8.7 6.5,-15.1 z m 67.3,5.6 c 3.7,-0.9 7.5,-1.5 11.1,-2.6 5.4,-1.7 7.8,-5.4 6.5,-9.6 -1.1,-3.7 -6,-5.9 -10.9,-4.9 -7.7,1.6 -13.6,10.6 -12.5,19.2 0.6,4.8 2.6,8.6 7.7,9.9 5.3,1.4 9.8,-0.2 13.8,-3.9 0.8,-0.7 1.4,-1.5 0.6,-2.6 -0.7,-0.9 -1.6,-1.3 -2.6,-0.7 -1.2,0.6 -2.2,1.5 -3.4,2.1 -6.2,2.9 -10.6,-0.1 -10.3,-6.9 z m 139,0 c 3.7,-0.9 7.4,-1.5 11,-2.6 5.5,-1.7 7.9,-5.2 6.8,-9.3 -1.1,-4.2 -6.2,-6.4 -11.5,-5.1 -7.2,1.9 -11.9,8.9 -11.9,17.6 0,5.1 1.6,9.1 6.7,11.1 4.6,1.8 11.7,0.1 14.7,-3.5 0.7,-0.8 1.3,-1.6 0.6,-2.6 -0.8,-1.2 -1.9,-1.2 -3,-0.5 -0.8,0.5 -1.6,1.2 -2.5,1.6 -6.1,3.2 -10.6,0.5 -10.9,-6.7 z m 77.9,-0.1 c 2.1,-0.4 3.9,-0.7 5.7,-1.1 1.8,-0.4 3.6,-0.8 5.3,-1.3 5.5,-1.8 8,-5.3 6.9,-9.4 -1.1,-4.2 -6.3,-6.4 -11.6,-5 -7.6,2 -12.7,10.3 -11.8,19.2 0.5,5 2.8,8.4 7.8,9.9 4.5,1.3 11.2,-0.8 13.8,-4 0.7,-0.9 1.1,-1.6 0.3,-2.6 -0.8,-0.9 -1.7,-1 -2.7,-0.4 -1,0.6 -1.9,1.3 -3,1.8 -6.2,2.8 -10.5,0.1 -10.7,-7.1 z m -339,-11.5 c 2.3,-2.7 8.3,1.3 7.6,-5 -2.5,-1.3 -4.9,0.2 -6.7,-1.5 -0.5,-2.7 1.4,-5.3 0.3,-8 -2.5,-1.1 -3.7,0.1 -4.3,2.4 -0.8,3 -0.5,6.8 -5.2,7.4 -1.3,0.2 -1.6,2.6 0,3 3.3,0.9 2.4,3.1 2.2,5.1 -0.4,4.1 -0.9,8.3 -1.3,12.4 -0.3,2.8 -0.2,5.4 2.5,7.1 2.7,1.6 5.4,1.1 8.1,-0.1 2.6,-1.2 2.5,-2.7 0.7,-4.5 -4.9,1.2 -6.1,0.7 -5.8,-2.8 0.4,-5.3 1.2,-10.7 1.9,-15.5 z m 294.1,-14.4 c -3.8,-1.2 -4.1,1.3 -4.8,3.6 -0.8,2.6 -0.6,5.8 -4.7,6.1 -1.5,0.1 -2.1,2.5 -0.7,2.9 4.9,1.5 2.5,5 2.3,7.7 -0.2,3.5 -0.9,6.9 -1.2,10.4 -0.3,2.8 0.2,5.4 3,6.9 2.8,1.5 5.5,0.9 8.1,-0.4 1.1,-0.5 2,-1.3 1.5,-2.7 -0.5,-1.5 -1.4,-1.8 -3.1,-1.2 -3.4,1.2 -4.1,-1 -3.8,-3.7 0.6,-5.3 1.4,-10.5 2,-15.2 2.5,-2.4 8.2,1.4 7.6,-4.8 -2.1,-1.3 -4.6,0.1 -6.4,-1.3 -0.9,-2.8 0.5,-5.4 0.2,-8.3 z m -150.6,37.7 c 5.6,0.6 5.6,0.6 6.1,-3.7 0.3,-2.8 0.6,-5.6 1,-8.4 1.1,-7.4 3.8,-10.3 11.1,-11.9 -0.4,-1.5 1.9,-3.5 -0.2,-4.4 -4.5,-1.8 -6.6,2.5 -9.7,5.2 -0.1,-1.4 -0.2,-2.3 -0.2,-3.2 0,-1.7 -1,-2.3 -2.5,-2.4 -1.7,-0.1 -2.2,0.8 -2.4,2.4 -1,8.7 -2.1,17.4 -3.2,26.4 z M 386.7,512 c 3.9,1.5 5.8,0.8 6.1,-3.2 0.2,-3.3 0.6,-6.6 1.2,-9.9 1.4,-7.2 3.9,-9.5 10.6,-10.4 0.3,-1.5 1.4,-3 0.4,-4.8 -4.7,-1.4 -6.8,2.7 -10.1,5.4 0,-1.6 0.1,-2.6 0,-3.6 -0.2,-1.7 -1.4,-2.1 -2.8,-2.1 -1.5,0 -1.9,0.8 -2.1,2.2 -1.1,8.8 -2.2,17.6 -3.3,26.4 z"
         id="path9"
         inkscape:connector-curvature="0"
         style="fill:#fefefe" /><path
         class="st1"
         d="m 188.8,403.3 c -7.7,8.2 -15.1,16.1 -22.6,24.1 -10.1,-6.6 -18.9,-14.3 -29.8,-20.5 0,34.8 0,69.1 0,103.7 -73.8,0 -146.8,0 -220.3,0 0,-35.1 0,-70 0,-106.4 -5.1,3.3 -9.4,6 -13.5,8.8 -5.5,3.8 -10.8,7.8 -16.2,11.8 -2.2,1.6 -3.6,1.4 -5.4,-0.7 -5.4,-6.1 -10.8,-12.2 -16.6,-18 -3.4,-3.4 -2.5,-5.2 0.9,-7.7 15.7,-11.8 31.3,-23.8 47,-35.6 2.6,-2 3.8,-4.1 3.7,-7.5 -0.2,-15.8 -0.1,-31.7 -0.1,-47.5 0,-1.8 0,-3.6 0,-5.6 11.8,0 23.1,0 34.7,0 0,10 0,19.9 0,31.1 C -24.3,314.1 0,295.6 24.4,276.9 79.2,319 133.8,361 188.8,403.3 Z m -88.1,74.5 c 0.2,-0.9 0.4,-1.4 0.4,-1.9 0,-30.7 0,-61.3 0.1,-92 0,-2.4 -1.3,-3.6 -2.9,-4.8 -23.6,-17.7 -47.2,-35.4 -70.6,-53.3 -2.7,-2.1 -4.4,-1.7 -6.9,0.1 -22.1,16.4 -44.2,32.7 -66.4,48.9 -2.7,2 -3.7,4.1 -3.7,7.4 0.1,30 0.1,60 0.1,90 0,1.8 -0.6,3.7 1,5.5 49.4,0.1 99,0.1 148.9,0.1 z"
         id="path11"
         inkscape:connector-curvature="0"
         style="fill:#5ccdf9" /><path
         class="st2"
         d="m 605.5,441.8 c -11.9,0 -23.5,0 -35.6,0 0,-16.1 0,-32.2 0,-48.6 -15.5,0 -30.6,0 -46.1,0 0,16 0,32.1 0,48.4 -12.1,0 -23.6,0 -35.6,0 0,-42.9 0,-85.9 0,-129.2 11.5,0 23.1,0 35.4,0 0,16.3 0,32.6 0,49.2 15.6,0 30.5,0 46,0 0,-16.5 0,-32.9 0,-49.4 12.2,0 23.9,0 35.9,0 0,43.1 0,86.1 0,129.6 z"
         id="path13"
         inkscape:connector-curvature="0"
         style="fill:#030303" /><path
         class="st2"
         d="m 673.7,401.9 c 0,13.6 0,26.6 0,39.8 -11.8,0 -23.4,0 -35.3,0 0,-42.9 0,-85.9 0,-129.1 0.1,-0.1 0.4,-0.4 0.7,-0.4 21.7,0 43.3,-0.4 65,0 14.8,0.3 32.1,14.6 37.2,29.4 5.7,16.9 1.5,33.2 -11.6,44.4 -0.9,0.8 -1.8,1.5 -2.9,2.4 10,17.6 20,35.2 30.3,53.4 -12.9,0 -25,-0.1 -37.1,0 -2.5,0 -2.9,-1.9 -3.8,-3.4 -6.2,-11 -12.5,-22 -18.5,-33.1 -1.6,-2.9 -3.4,-3.9 -6.6,-3.8 -5.6,0.6 -11.2,0.4 -17.4,0.4 z M 673,369 c 7.2,0 13.9,0.1 20.5,0 7.5,-0.2 13.5,-5.9 14.1,-13 0.5,-7 -4.8,-13.9 -12.2,-14.6 -7.4,-0.7 -14.8,-0.1 -22.3,-0.1 -0.1,9.3 -0.1,18.3 -0.1,27.7 z"
         id="path15"
         inkscape:connector-curvature="0"
         style="fill:#030303" /><path
         class="st2"
         d="m 382,441.6 c 0,-32.5 0,-64.6 0,-97.4 -7.6,0 -15,0 -22.5,0 -3.7,0 -7.3,0 -11,0 -2.8,0 -4.4,-1.2 -4.4,-4.1 0,-9.1 0,-18.3 0,-27.7 37,0 73.8,0 111.2,0 0,9.5 0.2,19.1 -0.1,28.6 -0.1,2.9 -2.8,3.2 -5.3,3.2 -10.6,-0.1 -21.3,0 -32.3,0 0,32.6 0,64.8 0,97.4 -12,0 -23.5,0 -35.6,0 z"
         id="path17"
         inkscape:connector-curvature="0"
         style="fill:#030303" /><path
         class="st2"
         d="m 260.8,546.9 c -1.6,0 -3,0 -4.7,0 0,-99.1 0,-197.9 0,-296.9 1.5,-0.9 2.9,-0.4 4.7,-0.4 0,99 0,197.9 0,297.3 z"
         id="path19"
         inkscape:connector-curvature="0"
         style="fill:#030303" /><path
         class="st3"
         d="m 491.6,484.8 c 0.2,0.6 0.4,0.8 0.4,0.8 -4.5,3.1 -3.8,8.8 -6.5,12.8 -2.1,3.1 -2.1,6 -0.2,9.3 3.3,5.7 1.4,11.2 -4.7,13.8 -4.5,1.9 -9.1,2 -13.6,0.2 -2.6,-1 -4.6,-2.9 -4.8,-5.9 -0.2,-2.9 1.4,-5 3.9,-6.5 3.9,-2.4 8.3,-2.3 12.5,-2.4 0.9,-1.4 1,-2.8 1,-4.6 -4.6,0.8 -9.2,1.3 -11.6,-3.7 -2,-4 -1.2,-7.9 1.5,-11.2 3.3,-3.9 7.7,-5.3 12.6,-3.6 3.2,1.1 6.6,0 9.5,1 z m -8.9,7.1 c -0.1,-2.9 -1.9,-4.8 -4.6,-4.8 -3.4,0 -6.1,3.3 -6,7.3 0.1,2.9 1.4,4.8 4.5,4.8 3.3,0 6.2,-3.5 6.1,-7.3 z m -6.8,18.2 c -3.5,0.6 -7.7,0.2 -7.9,5 -0.1,3.5 3.2,3.7 5.8,3.8 4.3,0.2 8.3,-2.5 8.1,-5.6 -0.3,-4.2 -4,-2.2 -6,-3.2 z"
         id="path21"
         inkscape:connector-curvature="0"
         style="fill:#8a8a8a" /><path
         class="st3"
         d="m 630.7,484.7 c 0.2,0.8 0.4,1.1 0.3,1.1 -4.9,3.1 -3.8,9.1 -6.7,13.2 -1.9,2.7 -1.8,5.4 -0.1,8.4 3.6,6.2 1.5,11.8 -5.1,14.5 -4.2,1.7 -8.5,1.6 -12.7,0.1 -2.7,-1 -4.7,-2.8 -5,-5.7 -0.3,-3.1 1.4,-5.4 4,-6.9 3.9,-2.3 8.3,-2.3 12.6,-2.3 1.1,-1.4 0.7,-2.9 0.7,-4.3 -0.3,-0.1 -0.6,-0.3 -0.9,-0.3 -7.2,1.2 -11.1,-1.2 -11.7,-7.1 -0.6,-6.1 4.3,-11.9 10.7,-12 4.8,-0.3 9.4,1.5 13.9,1.3 z m -19.5,9.6 c 0.3,2.5 1.2,4.8 4.7,4.8 3.3,0 6.1,-3.3 6,-7.2 -0.1,-2.8 -1.3,-4.8 -4.4,-4.9 -3.3,-0.1 -6.2,3.1 -6.3,7.3 z m 3.6,15.8 c -3.3,0.7 -7.5,0.3 -7.7,4.8 -0.1,3.9 3.5,4 6.3,3.9 3.6,-0.2 7.5,-1.2 7.5,-5.6 0,-4.2 -4.1,-2.1 -6.1,-3.1 z"
         id="path23"
         inkscape:connector-curvature="0"
         style="fill:#8a8a8a" /><path
         class="st3"
         d="m 688.1,488 c 2.1,-1.5 3.6,-2.8 5.4,-3.6 6.3,-3.3 11.5,-0.2 11.5,6.9 0.1,7 -1.3,13.9 -2.2,20.7 -1.9,1 -3.6,1.1 -5.5,0 0.7,-6 1.4,-12.1 1.9,-18.2 0.2,-2.1 0.7,-4.6 -2,-5.6 -2.3,-0.9 -4.2,0.4 -5.8,2 -2.9,2.7 -4.5,6.1 -4.8,10.1 -0.2,2.8 -0.8,5.6 -1,8.4 -0.3,3.8 -2.1,4.9 -6.2,3.6 1.6,-13.5 3.3,-27.1 4.9,-40.5 1.7,-1.3 3.4,-0.9 5.6,-0.5 -0.5,5.3 -1.1,10.6 -1.8,16.7 z"
         id="path25"
         inkscape:connector-curvature="0"
         style="fill:#8a8a8a" /><path
         class="st3"
         d="m 340.5,503.9 c 1.5,1 2.8,2 4.3,2.8 4.4,2.4 9.7,1.1 11.7,-2.9 2.1,-4.3 0.4,-7.5 -5.4,-9.6 -4.8,-1.8 -9.5,-3.5 -9.3,-10 0.1,-5.6 3,-10.1 8.1,-12 5.6,-2.1 10.6,-0.9 14.9,3.8 -1,2.8 -2.4,4.1 -5.4,1.9 -2.1,-1.6 -4.6,-1.6 -7.2,-1.1 -2.8,0.6 -4.2,2.5 -4.8,5.1 -0.6,2.7 0.9,4.4 3.2,5.6 1.6,0.8 3.4,1.4 5,2.1 8.1,3.5 9.9,10.8 4.5,17.8 -4.6,5.9 -13.5,7.3 -19.8,3.2 -2.9,-2.1 -3.7,-4.1 0.2,-6.7 z"
         id="path27"
         inkscape:connector-curvature="0"
         style="fill:#8a8a8a" /><path
         class="st3"
         d="m 563.3,476.8 c -4.2,0 -7.5,0 -11,0 -0.4,-2.6 -1.5,-5.2 2.4,-5.2 8.8,-0.1 17.6,0 26.5,0 0.9,3.7 0.2,5.4 -3.6,5.3 -2.6,-0.1 -5.3,-0.5 -8.2,0.5 -1.5,11.6 -3,23.2 -4.4,34.7 -1.9,1 -3.5,0.9 -5.8,0.2 1.3,-11.6 2.7,-23.2 4.1,-35.5 z"
         id="path29"
         inkscape:connector-curvature="0"
         style="fill:#8a8a8a" /><path
         class="st3"
         d="m 440.6,512.2 c -2.1,0.6 -3.7,0.8 -5.6,-0.3 1,-8.7 2.1,-17.6 3.1,-26.5 0.2,-1.4 1,-2.1 2.3,-2 1.2,0 2.2,0.4 2.5,1.9 0.2,1.1 -0.5,2.3 0.7,3.5 2,-1.7 3.6,-3.8 6.2,-4.8 5.9,-2.3 10.8,0.4 10.8,6.7 -0.1,6.6 -1.1,13.2 -2,19.8 -0.4,3.3 -3,2.2 -5.6,1.9 -0.2,-5.3 1.1,-10.5 1.5,-15.7 0.2,-3 2.1,-7 -1.8,-8.4 -3.9,-1.5 -6.2,2.1 -8.3,4.9 -2.9,3.8 -2.4,8.5 -3.1,12.9 -0.1,2 -0.4,3.9 -0.7,6.1 z"
         id="path31"
         inkscape:connector-curvature="0"
         style="fill:#8a8a8a" /><path
         class="st3"
         d="m 575.1,500.8 c 0,-7.8 4.3,-14.7 10.7,-17 6.7,-2.4 12.9,0.8 14.7,7.7 1.7,6.5 -1.4,15.2 -7,19 -4,2.7 -8.3,3.5 -12.7,1.1 -4.3,-2.2 -5.6,-6.2 -5.7,-10.8 z m 20.1,-5.1 c -0.2,-3.2 0.1,-6.9 -4.3,-7.8 -4.4,-0.9 -6.9,1.7 -8.6,5.3 -1.4,2.9 -1.6,6.1 -1.4,9.3 0.2,2.5 0.9,4.7 3.5,5.5 2.5,0.8 5,0.4 6.9,-1.6 2.8,-3 3.7,-6.7 3.9,-10.7 z"
         id="path33"
         inkscape:connector-curvature="0"
         style="fill:#8a8a8a" /><path
         class="st3"
         d="m 431.1,494.9 c 0,6.4 -2,11.4 -6.6,15.1 -3.8,3 -8,4 -12.7,2 -4.4,-1.8 -6.2,-5.6 -6.4,-9.9 -0.3,-6.5 1.6,-12.2 7,-16.2 3.9,-2.9 8.2,-3.8 12.7,-1.6 4.7,2.2 6.2,6.3 6,10.6 z m -20.1,5.4 c 0.1,3.7 0.3,7.2 4.6,8 4.1,0.8 6.6,-1.6 8.2,-5 1.6,-3.3 2.5,-6.9 1.5,-10.6 -1.3,-5.2 -6.3,-6.7 -10.2,-3 -3.1,2.8 -3.9,6.7 -4.1,10.6 z"
         id="path35"
         inkscape:connector-curvature="0"
         style="fill:#8a8a8a" /><path
         class="st3"
         d="m 498.4,500.5 c -0.3,6.9 4.1,9.8 10.2,7 1.2,-0.6 2.2,-1.5 3.4,-2.1 1,-0.6 1.9,-0.2 2.6,0.7 0.8,1 0.2,1.8 -0.6,2.6 -3.9,3.6 -8.5,5.2 -13.8,3.9 -5.1,-1.3 -7.1,-5.1 -7.7,-9.9 -1,-8.6 4.8,-17.6 12.5,-19.2 4.8,-1 9.7,1.2 10.9,4.9 1.3,4.2 -1.1,7.9 -6.5,9.6 -3.6,1 -7.3,1.6 -11,2.5 z m 0.6,-4.8 c 3.4,0.8 6.3,-0.4 9.2,-1.5 2,-0.8 3.5,-2.3 2.7,-4.6 -0.9,-2.5 -3.1,-2.8 -5.4,-2.1 -3.8,1.3 -5.8,4.1 -6.5,8.2 z"
         id="path37"
         inkscape:connector-curvature="0"
         style="fill:#8a8a8a" /><path
         class="st3"
         d="m 637.4,500.5 c 0.3,7.2 4.8,9.9 10.9,6.7 0.9,-0.5 1.7,-1.1 2.5,-1.6 1.1,-0.7 2.2,-0.7 3,0.5 0.7,1 0.1,1.8 -0.6,2.6 -3,3.6 -10.1,5.3 -14.7,3.5 -5.1,-2 -6.7,-6 -6.7,-11.1 0,-8.7 4.7,-15.7 11.9,-17.6 5.3,-1.4 10.4,0.9 11.5,5.1 1.1,4.1 -1.3,7.6 -6.8,9.3 -3.6,1.1 -7.4,1.8 -11,2.6 z m 0.5,-4.5 c 3.9,0.2 6.9,-0.6 9.7,-1.9 2.1,-1 3.2,-2.6 2.2,-4.8 -0.8,-2 -2.7,-2.3 -4.6,-1.8 -4.2,0.9 -6.1,4 -7.3,8.5 z"
         id="path39"
         inkscape:connector-curvature="0"
         style="fill:#8a8a8a" /><path
         class="st3"
         d="m 715.3,500.4 c 0.2,7.3 4.5,9.9 10.6,7 1,-0.5 2,-1.2 3,-1.8 1,-0.6 1.9,-0.5 2.7,0.4 0.9,1 0.4,1.7 -0.3,2.6 -2.5,3.3 -9.3,5.3 -13.8,4 -4.9,-1.4 -7.3,-4.8 -7.8,-9.9 -0.8,-8.9 4.2,-17.1 11.8,-19.2 5.3,-1.4 10.4,0.8 11.6,5 1.1,4.1 -1.4,7.5 -6.9,9.4 -1.7,0.6 -3.5,0.9 -5.3,1.3 -1.7,0.5 -3.5,0.8 -5.6,1.2 z m 0.6,-4.6 c 3.8,0.6 6.8,-0.4 9.6,-1.7 2.1,-0.9 3.3,-2.5 2.3,-4.8 -0.9,-2.2 -3,-2.5 -5.1,-1.9 -3.8,1.3 -5.8,4.1 -6.8,8.4 z"
         id="path41"
         inkscape:connector-curvature="0"
         style="fill:#8a8a8a" /><path
         class="st3"
         d="m 376.3,488.9 c -0.6,4.7 -1.4,10.1 -2,15.6 -0.3,3.4 0.9,3.9 5.8,2.8 1.8,1.8 1.9,3.3 -0.7,4.5 -2.7,1.2 -5.4,1.8 -8.1,0.1 -2.7,-1.6 -2.8,-4.3 -2.5,-7.1 0.5,-4.1 0.9,-8.3 1.3,-12.4 0.2,-2 1.1,-4.2 -2.2,-5.1 -1.6,-0.4 -1.2,-2.8 0,-3 4.7,-0.6 4.4,-4.3 5.2,-7.4 0.6,-2.4 1.8,-3.5 4.3,-2.4 1.1,2.7 -0.8,5.2 -0.3,8 1.7,1.7 4.2,0.2 6.7,1.5 0.8,6.2 -5.3,2.3 -7.5,4.9 z"
         id="path43"
         inkscape:connector-curvature="0"
         style="fill:#8a8a8a" /><path
         class="st3"
         d="m 670.4,474.5 c 0.3,2.9 -1.1,5.5 -0.2,8.1 1.9,1.5 4.3,0 6.4,1.3 0.6,6.2 -5.1,2.4 -7.6,4.8 -0.6,4.7 -1.4,9.9 -2,15.2 -0.3,2.8 0.4,4.9 3.8,3.7 1.7,-0.6 2.5,-0.3 3.1,1.2 0.5,1.5 -0.4,2.2 -1.5,2.7 -2.6,1.3 -5.3,1.9 -8.1,0.4 -2.7,-1.5 -3.2,-4.1 -3,-6.9 0.3,-3.5 1,-6.9 1.2,-10.4 0.2,-2.7 2.6,-6.2 -2.3,-7.7 -1.4,-0.4 -0.8,-2.8 0.7,-2.9 4.1,-0.3 3.9,-3.5 4.7,-6.1 0.7,-2.1 1,-4.6 4.8,-3.4 z"
         id="path45"
         inkscape:connector-curvature="0"
         style="fill:#8a8a8a" /><path
         class="st3"
         d="m 519.8,512.2 c 1.1,-9 2.2,-17.7 3.2,-26.4 0.2,-1.6 0.7,-2.5 2.4,-2.4 1.5,0.1 2.5,0.8 2.5,2.4 0,0.9 0.1,1.8 0.2,3.2 3.1,-2.7 5.2,-7 9.7,-5.2 2.2,0.8 -0.2,2.9 0.2,4.4 -7.3,1.6 -10.1,4.5 -11.1,11.9 -0.4,2.8 -0.7,5.6 -1,8.4 -0.5,4.3 -0.5,4.3 -6.1,3.7 z"
         id="path47"
         inkscape:connector-curvature="0"
         style="fill:#8a8a8a" /><path
         class="st3"
         d="m 746.4,488.3 c 2.5,-2.5 4.6,-5.8 9,-4.7 1,1.8 0.4,3.3 -0.2,4.8 -7.1,1.1 -10.1,4.6 -11.1,12.8 -0.5,3.6 -0.9,7.2 -1.3,10.7 -1.7,1.2 -3.3,1 -5.5,0.4 0.7,-6.1 1.3,-12.3 2,-18.4 0.2,-2.1 0.5,-4.3 0.8,-6.4 0.3,-1.7 -0.2,-4 2.6,-4 2.9,0 2.8,2.3 2.9,4.3 -0.1,0.6 -0.3,1.6 -0.2,1.6 0.8,0.2 0.7,-0.7 1,-1.1 z"
         id="path49"
         inkscape:connector-curvature="0"
         style="fill:#8a8a8a" /><path
         class="st3"
         d="m 386.7,512 c 1.1,-8.8 2.2,-17.6 3.2,-26.4 0.2,-1.4 0.6,-2.2 2.1,-2.2 1.5,0 2.7,0.5 2.8,2.1 0.1,1 0,2 0,3.6 3.3,-2.7 5.4,-6.8 10.1,-5.4 1,1.8 0,3.3 -0.4,4.8 -6.7,0.9 -9.1,3.2 -10.6,10.4 -0.6,3.2 -1,6.6 -1.2,9.9 -0.1,3.9 -2,4.7 -6,3.2 z"
         id="path51"
         inkscape:connector-curvature="0"
         style="fill:#8a8a8a" /><path
         class="st4"
         d="m 100.7,477.8 c -49.9,0 -99.5,0 -148.9,0 -1.5,-1.9 -1,-3.8 -1,-5.5 0,-30 0,-60 -0.1,-90 0,-3.4 1,-5.4 3.7,-7.4 22.2,-16.2 44.3,-32.5 66.4,-48.9 2.5,-1.8 4.1,-2.2 6.9,-0.1 23.4,17.9 47,35.5 70.6,53.3 1.6,1.2 2.9,2.4 2.9,4.8 -0.1,30.7 -0.1,61.3 -0.1,92 0,0.4 -0.2,0.9 -0.4,1.8 z m -75.1,-88 c -2.6,-1.5 -3.4,-4.2 -4.9,-6.3 -5.4,-7.4 -12.9,-10 -21.5,-8.2 -8.6,1.8 -14.4,7 -16.5,16 -1.5,6.2 0.4,11.5 2.9,16.8 8.4,17.8 23.3,30.1 36.9,43.5 2.1,2 3.9,1.6 6,-0.4 8.3,-7.9 16.5,-15.9 24.1,-24.5 6.9,-7.7 12.8,-16.2 15.4,-26.5 2.4,-9.2 -1.4,-18 -9.5,-22.5 -8.7,-4.8 -19.2,-3.5 -25.8,2.9 -2.8,2.8 -4.6,6.2 -7.1,9.2 z"
         id="path53"
         inkscape:connector-curvature="0"
         style="fill:#f4a9b7" /><path
         class="st0"
         d="m 673,369 c 0,-9.4 0,-18.4 0,-27.7 7.5,0 15,-0.5 22.3,0.1 7.5,0.7 12.8,7.6 12.2,14.6 -0.5,7.1 -6.6,12.8 -14.1,13 -6.6,0.1 -13.2,0 -20.4,0 z"
         id="path55"
         inkscape:connector-curvature="0"
         style="fill:#fefefe" /><path
         class="st0"
         d="m 482.7,491.9 c 0.1,3.8 -2.8,7.3 -6.1,7.3 -3.1,0 -4.4,-1.9 -4.5,-4.8 -0.1,-4 2.6,-7.3 6,-7.3 2.7,-0.1 4.6,1.9 4.6,4.8 z"
         id="path57"
         inkscape:connector-curvature="0"
         style="fill:#fefefe" /><path
         class="st0"
         d="m 475.9,510.1 c 2,1 5.7,-0.9 6,3.2 0.2,3 -3.7,5.7 -8.1,5.6 -2.6,-0.1 -5.9,-0.3 -5.8,-3.8 0.2,-4.9 4.4,-4.5 7.9,-5 z"
         id="path59"
         inkscape:connector-curvature="0"
         style="fill:#fefefe" /><path
         class="st0"
         d="m 611.2,494.3 c 0.1,-4.2 3,-7.5 6.3,-7.3 3.1,0.2 4.3,2.1 4.4,4.9 0.1,3.9 -2.7,7.1 -6,7.2 -3.5,0.1 -4.4,-2.3 -4.7,-4.8 z"
         id="path61"
         inkscape:connector-curvature="0"
         style="fill:#fefefe" /><path
         class="st0"
         d="m 614.8,510.1 c 2,1.1 6.1,-1 6.1,3.1 0,4.4 -3.9,5.5 -7.5,5.6 -2.8,0.1 -6.4,0 -6.3,-3.9 0.2,-4.6 4.4,-4.1 7.7,-4.8 z"
         id="path63"
         inkscape:connector-curvature="0"
         style="fill:#fefefe" /><path
         class="st0"
         d="m 595.2,495.7 c -0.1,4 -1,7.7 -3.9,10.6 -1.9,2 -4.3,2.5 -6.9,1.6 -2.6,-0.8 -3.3,-3.1 -3.5,-5.5 -0.2,-3.2 0,-6.3 1.4,-9.3 1.7,-3.6 4.2,-6.2 8.6,-5.3 4.3,1 4.1,4.7 4.3,7.9 z"
         id="path65"
         inkscape:connector-curvature="0"
         style="fill:#fefefe" /><path
         class="st0"
         d="m 411,500.3 c 0.1,-3.9 1,-7.7 4.1,-10.7 3.9,-3.7 9,-2.1 10.2,3 0.9,3.7 0,7.3 -1.5,10.6 -1.6,3.4 -4.1,5.8 -8.2,5 -4.2,-0.8 -4.5,-4.2 -4.6,-7.9 z"
         id="path67"
         inkscape:connector-curvature="0"
         style="fill:#fefefe" /><path
         class="st0"
         d="m 499,495.7 c 0.7,-4.1 2.7,-6.9 6.5,-8.2 2.2,-0.7 4.5,-0.4 5.4,2.1 0.8,2.3 -0.6,3.8 -2.7,4.6 -2.9,1.1 -5.8,2.3 -9.2,1.5 z"
         id="path69"
         inkscape:connector-curvature="0"
         style="fill:#fefefe" /><path
         class="st0"
         d="m 637.9,496 c 1.2,-4.5 3.1,-7.5 7.3,-8.6 1.9,-0.5 3.8,-0.1 4.6,1.8 0.9,2.2 -0.1,3.9 -2.2,4.8 -2.8,1.4 -5.8,2.2 -9.7,2 z"
         id="path71"
         inkscape:connector-curvature="0"
         style="fill:#fefefe" /><path
         class="st0"
         d="m 715.9,495.8 c 1,-4.3 3,-7.1 6.9,-8.3 2.1,-0.6 4.1,-0.3 5.1,1.9 1,2.3 -0.3,3.9 -2.3,4.8 -2.9,1.1 -5.9,2.2 -9.7,1.6 z"
         id="path73"
         inkscape:connector-curvature="0"
         style="fill:#fefefe" /><path
         class="st0"
         d="m 746.4,488.3 c -0.3,0.4 -0.2,1.3 -1,0.9 -0.1,-0.1 0.1,-1.1 0.2,-1.6 0.3,0.3 0.5,0.5 0.8,0.7 z"
         id="path75"
         inkscape:connector-curvature="0"
         style="fill:#fefefe" /><path
         class="st0"
         d="m 25.6,389.8 c 2.4,-3 4.2,-6.4 7,-9.1 6.6,-6.5 17.1,-7.7 25.8,-2.9 8.1,4.5 11.9,13.2 9.5,22.5 -2.6,10.2 -8.5,18.7 -15.4,26.5 -7.6,8.6 -15.8,16.6 -24.1,24.5 -2.1,2 -4,2.4 -6,0.4 C 8.8,438.3 -6.1,426 -14.5,408.2 c -2.5,-5.3 -4.3,-10.6 -2.9,-16.8 2.1,-9 8,-14.2 16.5,-16 8.6,-1.8 16.1,0.8 21.5,8.2 1.7,2 2.5,4.7 5,6.2 z"
         id="path77"
         inkscape:connector-curvature="0"
         style="fill:#fefefe" /></g></g></svg>