<?xml version="1.0" encoding="utf-8"?>
<!-- Generator: Adobe Illustrator 19.0.0, SVG Export Plug-In . SVG Version: 6.00 Build 0)  -->
<svg version="1.1" id="Layer_1" xmlns="http://www.w3.org/2000/svg" xmlns:xlink="http://www.w3.org/1999/xlink" x="0px" y="0px"
	 viewBox="0 0 612 792" style="enable-background:new 0 0 612 792;" xml:space="preserve">
<style type="text/css">
	.st0{fill:#FEFEFE;}
	.st1{fill:#5CCDF9;}
	.st2{fill:#030303;}
	.st3{fill:#8A8A8A;}
	.st4{fill:#F4A9B7;}
</style>
<g>
	<g>
		<path class="st0" d="M-193,204c333.3,0,666.7,0,1000,0c0,128.3,0,256.7,0,385c-333.3,0-666.7,0-1000,0
			C-193,460.7-193,332.3-193,204z M746.4,488.3c-0.3-0.2-0.5-0.5-0.8-0.7c-0.1-2,0-4.3-2.9-4.3c-2.8,0-2.3,2.3-2.6,4
			c-0.3,2.1-0.6,4.3-0.8,6.4c-0.7,6.2-1.4,12.3-2,18.4c2.2,0.6,3.8,0.9,5.5-0.4c0.4-3.5,0.8-7.1,1.3-10.7c1-8.2,4-11.6,11.1-12.8
			c0.6-1.5,1.2-3,0.2-4.8C751,482.5,748.9,485.8,746.4,488.3z M188.8,403.3C133.8,361,79.2,319,24.5,276.9
			c-24.4,18.6-48.7,37.2-73.8,56.4c0-11.1,0-21,0-31.1c-11.7,0-22.9,0-34.7,0c0,2.1,0,3.9,0,5.6c0,15.8-0.1,31.7,0.1,47.5
			c0,3.4-1.1,5.5-3.7,7.5c-15.7,11.8-31.2,23.8-47,35.6c-3.4,2.5-4.3,4.3-0.9,7.7c5.8,5.7,11.2,11.9,16.6,18
			c1.8,2.1,3.2,2.4,5.4,0.7c5.3-4,10.7-7.9,16.2-11.8c4.1-2.9,8.4-5.5,13.5-8.8c0,36.4,0,71.3,0,106.4c73.5,0,146.5,0,220.3,0
			c0-34.6,0-68.9,0-103.7c10.9,6.2,19.7,13.8,29.8,20.5C173.7,419.4,181.1,411.5,188.8,403.3z M605.5,441.8c0-43.5,0-86.5,0-129.6
			c-12,0-23.7,0-35.9,0c0,16.5,0,32.9,0,49.4c-15.5,0-30.4,0-46,0c0-16.6,0-32.9,0-49.2c-12.2,0-23.8,0-35.4,0
			c0,43.3,0,86.3,0,129.2c11.9,0,23.5,0,35.6,0c0-16.3,0-32.4,0-48.4c15.5,0,30.6,0,46.1,0c0,16.4,0,32.5,0,48.6
			C582,441.8,593.6,441.8,605.5,441.8z M673.7,401.9c6.1,0,11.8,0.2,17.4-0.1c3.2-0.2,5.1,0.8,6.6,3.8c6,11.1,12.3,22.1,18.5,33.1
			c0.8,1.5,1.2,3.4,3.8,3.4c12.1-0.1,24.2,0,37.1,0c-10.3-18.2-20.3-35.8-30.3-53.4c1.1-0.9,2-1.7,2.9-2.4
			c13.1-11.2,17.3-27.5,11.6-44.4c-5-14.9-22.4-29.2-37.2-29.4c-21.7-0.4-43.3-0.1-65,0c-0.3,0-0.5,0.3-0.7,0.4
			c0,43.1,0,86.2,0,129.1c12,0,23.6,0,35.3,0C673.7,428.4,673.7,415.5,673.7,401.9z M382,441.6c12.1,0,23.6,0,35.6,0
			c0-32.6,0-64.8,0-97.4c11,0,21.7,0,32.3,0c2.5,0,5.2-0.3,5.3-3.2c0.3-9.6,0.1-19.1,0.1-28.6c-37.4,0-74.2,0-111.2,0
			c0,9.4,0,18.6,0,27.7c0,2.9,1.6,4.1,4.4,4.1c3.7,0,7.3,0,11,0c7.4,0,14.9,0,22.5,0C382,377,382,409.1,382,441.6z M260.8,546.9
			c0-99.4,0-198.3,0-297.2c-1.7,0-3.2-0.5-4.7,0.4c0,98.9,0,197.8,0,296.9C257.8,546.9,259.2,546.9,260.8,546.9z M491.6,484.8
			c-2.9-1-6.3,0.1-9.5-1c-4.9-1.7-9.3-0.3-12.6,3.6c-2.8,3.3-3.5,7.2-1.5,11.2c2.5,5,7.1,4.6,11.6,3.7c0.1,1.8-0.1,3.2-1,4.6
			c-4.3,0.2-8.7,0-12.5,2.4c-2.4,1.5-4,3.6-3.9,6.5c0.2,3,2.2,4.9,4.8,5.9c4.5,1.8,9.2,1.7,13.6-0.2c6.1-2.6,8-8.1,4.7-13.8
			c-1.9-3.3-1.9-6.2,0.2-9.3c2.7-4,1.9-9.7,6.5-12.8C492,485.6,491.8,485.4,491.6,484.8z M630.7,484.7c-4.5,0.3-9.1-1.5-13.8-1.4
			c-6.5,0.1-11.3,5.9-10.7,12c0.6,5.9,4.6,8.3,11.7,7.1c0.2,0,0.5,0.2,0.9,0.3c0.1,1.4,0.4,2.9-0.7,4.3c-4.3,0-8.7,0-12.6,2.3
			c-2.6,1.5-4.3,3.8-4,6.9c0.3,2.9,2.3,4.7,5,5.7c4.2,1.5,8.5,1.6,12.7-0.1c6.6-2.6,8.7-8.3,5.1-14.5c-1.7-3-1.8-5.7,0.1-8.4
			c2.8-4.1,1.8-10.1,6.7-13.2C631.1,485.7,630.9,485.5,630.7,484.7z M688.1,488c0.7-6.1,1.3-11.5,1.8-16.8c-2.3-0.3-3.9-0.8-5.6,0.5
			c-1.6,13.4-3.3,27-4.9,40.5c4.1,1.3,5.9,0.2,6.2-3.6c0.2-2.8,0.8-5.6,1-8.4c0.3-4,1.9-7.4,4.8-10.1c1.6-1.5,3.5-2.8,5.8-2
			c2.7,1,2.1,3.5,2,5.6c-0.5,6.1-1.3,12.2-1.9,18.2c2,1.1,3.7,1,5.5,0c0.9-6.9,2.3-13.7,2.2-20.7c-0.1-7.1-5.2-10.1-11.5-6.9
			C691.7,485.3,690.2,486.6,688.1,488z M340.5,503.9c-3.9,2.7-3.2,4.7-0.1,6.7c6.3,4.2,15.2,2.8,19.8-3.2c5.4-7,3.5-14.3-4.5-17.8
			c-1.7-0.7-3.4-1.3-5-2.1c-2.3-1.1-3.8-2.8-3.2-5.6c0.6-2.6,1.9-4.6,4.8-5.1c2.5-0.5,5.1-0.5,7.2,1.1c3,2.3,4.4,0.9,5.4-1.9
			c-4.3-4.6-9.3-5.9-14.9-3.8c-5.1,1.9-8,6.4-8.1,12c-0.1,6.5,4.5,8.2,9.3,10c5.8,2.1,7.5,5.3,5.4,9.6c-2,4-7.3,5.3-11.7,2.9
			C343.4,505.9,342.1,504.9,340.5,503.9z M563.3,476.8c-1.4,12.3-2.8,23.9-4.2,35.4c2.3,0.6,3.9,0.8,5.8-0.2
			c1.5-11.4,3-23.1,4.4-34.7c2.9-1,5.6-0.6,8.2-0.5c3.8,0.1,4.5-1.6,3.6-5.3c-8.9,0-17.7-0.1-26.5,0c-3.9,0-2.8,2.6-2.4,5.2
			C555.8,476.8,559.1,476.8,563.3,476.8z M440.6,512.2c0.3-2.2,0.5-4.2,0.8-6.1c0.6-4.4,0.2-9.1,3.1-12.9c2.1-2.8,4.4-6.4,8.3-4.9
			c3.9,1.4,2,5.4,1.8,8.4c-0.4,5.2-1.7,10.4-1.5,15.7c2.5,0.3,5.1,1.3,5.6-1.9c0.9-6.6,1.9-13.2,2-19.8c0.1-6.3-4.9-9-10.8-6.7
			c-2.5,1-4.2,3.1-6.2,4.8c-1.2-1.2-0.5-2.4-0.7-3.5c-0.3-1.4-1.3-1.8-2.5-1.9c-1.3,0-2.2,0.6-2.3,2c-1,8.9-2.1,17.7-3.1,26.5
			C437,513.1,438.6,512.9,440.6,512.2z M575.1,500.8c0.1,4.6,1.4,8.6,5.7,10.8c4.4,2.3,8.7,1.5,12.7-1.1c5.6-3.7,8.8-12.4,7-19
			c-1.8-6.8-8-10.1-14.7-7.7C579.4,486.1,575,493,575.1,500.8z M431.1,494.9c0.2-4.3-1.4-8.4-5.9-10.6c-4.5-2.2-8.8-1.3-12.7,1.6
			c-5.4,4-7.4,9.8-7,16.2c0.2,4.3,2,8.1,6.4,9.9c4.6,1.9,8.9,0.9,12.7-2C429.1,506.3,431.1,501.3,431.1,494.9z M498.4,500.5
			c3.7-0.9,7.5-1.5,11.1-2.6c5.4-1.7,7.8-5.4,6.5-9.6c-1.1-3.7-6-5.9-10.9-4.9c-7.7,1.6-13.6,10.6-12.5,19.2
			c0.6,4.8,2.6,8.6,7.7,9.9c5.3,1.4,9.8-0.2,13.8-3.9c0.8-0.7,1.4-1.5,0.6-2.6c-0.7-0.9-1.6-1.3-2.6-0.7c-1.2,0.6-2.2,1.5-3.4,2.1
			C502.5,510.3,498.1,507.3,498.4,500.5z M637.4,500.5c3.7-0.9,7.4-1.5,11-2.6c5.5-1.7,7.9-5.2,6.8-9.3c-1.1-4.2-6.2-6.4-11.5-5.1
			c-7.2,1.9-11.9,8.9-11.9,17.6c0,5.1,1.6,9.1,6.7,11.1c4.6,1.8,11.7,0.1,14.7-3.5c0.7-0.8,1.3-1.6,0.6-2.6c-0.8-1.2-1.9-1.2-3-0.5
			c-0.8,0.5-1.6,1.2-2.5,1.6C642.2,510.4,637.7,507.7,637.4,500.5z M715.3,500.4c2.1-0.4,3.9-0.7,5.7-1.1c1.8-0.4,3.6-0.8,5.3-1.3
			c5.5-1.8,8-5.3,6.9-9.4c-1.1-4.2-6.3-6.4-11.6-5c-7.6,2-12.7,10.3-11.8,19.2c0.5,5,2.8,8.4,7.8,9.9c4.5,1.3,11.2-0.8,13.8-4
			c0.7-0.9,1.1-1.6,0.3-2.6c-0.8-0.9-1.7-1-2.7-0.4c-1,0.6-1.9,1.3-3,1.8C719.8,510.3,715.5,507.6,715.3,500.4z M376.3,488.9
			c2.3-2.7,8.3,1.3,7.6-5c-2.5-1.3-4.9,0.2-6.7-1.5c-0.5-2.7,1.4-5.3,0.3-8c-2.5-1.1-3.7,0.1-4.3,2.4c-0.8,3-0.5,6.8-5.2,7.4
			c-1.3,0.2-1.6,2.6,0,3c3.3,0.9,2.4,3.1,2.2,5.1c-0.4,4.1-0.9,8.3-1.3,12.4c-0.3,2.8-0.2,5.4,2.5,7.1c2.7,1.6,5.4,1.1,8.1-0.1
			c2.6-1.2,2.5-2.7,0.7-4.5c-4.9,1.2-6.1,0.7-5.8-2.8C374.8,499.1,375.6,493.7,376.3,488.9z M670.4,474.5c-3.8-1.2-4.1,1.3-4.8,3.6
			c-0.8,2.6-0.6,5.8-4.7,6.1c-1.5,0.1-2.1,2.5-0.7,2.9c4.9,1.5,2.5,5,2.3,7.7c-0.2,3.5-0.9,6.9-1.2,10.4c-0.3,2.8,0.2,5.4,3,6.9
			c2.8,1.5,5.5,0.9,8.1-0.4c1.1-0.5,2-1.3,1.5-2.7c-0.5-1.5-1.4-1.8-3.1-1.2c-3.4,1.2-4.1-1-3.8-3.7c0.6-5.3,1.4-10.5,2-15.2
			c2.5-2.4,8.2,1.4,7.6-4.8c-2.1-1.3-4.6,0.1-6.4-1.3C669.3,480,670.7,477.4,670.4,474.5z M519.8,512.2c5.6,0.6,5.6,0.6,6.1-3.7
			c0.3-2.8,0.6-5.6,1-8.4c1.1-7.4,3.8-10.3,11.1-11.9c-0.4-1.5,1.9-3.5-0.2-4.4c-4.5-1.8-6.6,2.5-9.7,5.2c-0.1-1.4-0.2-2.3-0.2-3.2
			c0-1.7-1-2.3-2.5-2.4c-1.7-0.1-2.2,0.8-2.4,2.4C522,494.5,520.9,503.2,519.8,512.2z M386.7,512c3.9,1.5,5.8,0.8,6.1-3.2
			c0.2-3.3,0.6-6.6,1.2-9.9c1.4-7.2,3.9-9.5,10.6-10.4c0.3-1.5,1.4-3,0.4-4.8c-4.7-1.4-6.8,2.7-10.1,5.4c0-1.6,0.1-2.6,0-3.6
			c-0.2-1.7-1.4-2.1-2.8-2.1c-1.5,0-1.9,0.8-2.1,2.2C388.9,494.4,387.8,503.2,386.7,512z"/>
		<path class="st1" d="M188.8,403.3c-7.7,8.2-15.1,16.1-22.6,24.1c-10.1-6.6-18.9-14.3-29.8-20.5c0,34.8,0,69.1,0,103.7
			c-73.8,0-146.8,0-220.3,0c0-35.1,0-70,0-106.4c-5.1,3.3-9.4,6-13.5,8.8c-5.5,3.8-10.8,7.8-16.2,11.8c-2.2,1.6-3.6,1.4-5.4-0.7
			c-5.4-6.1-10.8-12.2-16.6-18c-3.4-3.4-2.5-5.2,0.9-7.7c15.7-11.8,31.3-23.8,47-35.6c2.6-2,3.8-4.1,3.7-7.5
			c-0.2-15.8-0.1-31.7-0.1-47.5c0-1.8,0-3.6,0-5.6c11.8,0,23.1,0,34.7,0c0,10,0,19.9,0,31.1c25.1-19.2,49.4-37.7,73.8-56.4
			C79.2,319,133.8,361,188.8,403.3z M100.7,477.8c0.2-0.9,0.4-1.4,0.4-1.9c0-30.7,0-61.3,0.1-92c0-2.4-1.3-3.6-2.9-4.8
			c-23.6-17.7-47.2-35.4-70.6-53.3c-2.7-2.1-4.4-1.7-6.9,0.1c-22.1,16.4-44.2,32.7-66.4,48.9c-2.7,2-3.7,4.1-3.7,7.4
			c0.1,30,0.1,60,0.1,90c0,1.8-0.6,3.7,1,5.5C1.2,477.8,50.8,477.8,100.7,477.8z"/>
		<path class="st2" d="M605.5,441.8c-11.9,0-23.5,0-35.6,0c0-16.1,0-32.2,0-48.6c-15.5,0-30.6,0-46.1,0c0,16,0,32.1,0,48.4
			c-12.1,0-23.6,0-35.6,0c0-42.9,0-85.9,0-129.2c11.5,0,23.1,0,35.4,0c0,16.3,0,32.6,0,49.2c15.6,0,30.5,0,46,0
			c0-16.5,0-32.9,0-49.4c12.2,0,23.9,0,35.9,0C605.5,355.3,605.5,398.3,605.5,441.8z"/>
		<path class="st2" d="M673.7,401.9c0,13.6,0,26.6,0,39.8c-11.8,0-23.4,0-35.3,0c0-42.9,0-85.9,0-129.1c0.1-0.1,0.4-0.4,0.7-0.4
			c21.7,0,43.3-0.4,65,0c14.8,0.3,32.1,14.6,37.2,29.4c5.7,16.9,1.5,33.2-11.6,44.4c-0.9,0.8-1.8,1.5-2.9,2.4
			c10,17.6,20,35.2,30.3,53.4c-12.9,0-25-0.1-37.1,0c-2.5,0-2.9-1.9-3.8-3.4c-6.2-11-12.5-22-18.5-33.1c-1.6-2.9-3.4-3.9-6.6-3.8
			C685.5,402.1,679.9,401.9,673.7,401.9z M673,369c7.2,0,13.9,0.1,20.5,0c7.5-0.2,13.5-5.9,14.1-13c0.5-7-4.8-13.9-12.2-14.6
			c-7.4-0.7-14.8-0.1-22.3-0.1C673,350.6,673,359.6,673,369z"/>
		<path class="st2" d="M382,441.6c0-32.5,0-64.6,0-97.4c-7.6,0-15,0-22.5,0c-3.7,0-7.3,0-11,0c-2.8,0-4.4-1.2-4.4-4.1
			c0-9.1,0-18.3,0-27.7c37,0,73.8,0,111.2,0c0,9.5,0.2,19.1-0.1,28.6c-0.1,2.9-2.8,3.2-5.3,3.2c-10.6-0.1-21.3,0-32.3,0
			c0,32.6,0,64.8,0,97.4C405.6,441.6,394.1,441.6,382,441.6z"/>
		<path class="st2" d="M260.8,546.9c-1.6,0-3,0-4.7,0c0-99.1,0-197.9,0-296.9c1.5-0.9,2.9-0.4,4.7-0.4
			C260.8,348.6,260.8,447.5,260.8,546.9z"/>
		<path class="st3" d="M491.6,484.8c0.2,0.6,0.4,0.8,0.4,0.8c-4.5,3.1-3.8,8.8-6.5,12.8c-2.1,3.1-2.1,6-0.2,9.3
			c3.3,5.7,1.4,11.2-4.7,13.8c-4.5,1.9-9.1,2-13.6,0.2c-2.6-1-4.6-2.9-4.8-5.9c-0.2-2.9,1.4-5,3.9-6.5c3.9-2.4,8.3-2.3,12.5-2.4
			c0.9-1.4,1-2.8,1-4.6c-4.6,0.8-9.2,1.3-11.6-3.7c-2-4-1.2-7.9,1.5-11.2c3.3-3.9,7.7-5.3,12.6-3.6
			C485.3,484.9,488.7,483.8,491.6,484.8z M482.7,491.9c-0.1-2.9-1.9-4.8-4.6-4.8c-3.4,0-6.1,3.3-6,7.3c0.1,2.9,1.4,4.8,4.5,4.8
			C479.9,499.2,482.8,495.7,482.7,491.9z M475.9,510.1c-3.5,0.6-7.7,0.2-7.9,5c-0.1,3.5,3.2,3.7,5.8,3.8c4.3,0.2,8.3-2.5,8.1-5.6
			C481.6,509.1,477.9,511.1,475.9,510.1z"/>
		<path class="st3" d="M630.7,484.7c0.2,0.8,0.4,1.1,0.3,1.1c-4.9,3.1-3.8,9.1-6.7,13.2c-1.9,2.7-1.8,5.4-0.1,8.4
			c3.6,6.2,1.5,11.8-5.1,14.5c-4.2,1.7-8.5,1.6-12.7,0.1c-2.7-1-4.7-2.8-5-5.7c-0.3-3.1,1.4-5.4,4-6.9c3.9-2.3,8.3-2.3,12.6-2.3
			c1.1-1.4,0.7-2.9,0.7-4.3c-0.3-0.1-0.6-0.3-0.9-0.3c-7.2,1.2-11.1-1.2-11.7-7.1c-0.6-6.1,4.3-11.9,10.7-12
			C621.6,483.1,626.2,484.9,630.7,484.7z M611.2,494.3c0.3,2.5,1.2,4.8,4.7,4.8c3.3,0,6.1-3.3,6-7.2c-0.1-2.8-1.3-4.8-4.4-4.9
			C614.2,486.9,611.3,490.1,611.2,494.3z M614.8,510.1c-3.3,0.7-7.5,0.3-7.7,4.8c-0.1,3.9,3.5,4,6.3,3.9c3.6-0.2,7.5-1.2,7.5-5.6
			C620.9,509,616.8,511.1,614.8,510.1z"/>
		<path class="st3" d="M688.1,488c2.1-1.5,3.6-2.8,5.4-3.6c6.3-3.3,11.5-0.2,11.5,6.9c0.1,7-1.3,13.9-2.2,20.7c-1.9,1-3.6,1.1-5.5,0
			c0.7-6,1.4-12.1,1.9-18.2c0.2-2.1,0.7-4.6-2-5.6c-2.3-0.9-4.2,0.4-5.8,2c-2.9,2.7-4.5,6.1-4.8,10.1c-0.2,2.8-0.8,5.6-1,8.4
			c-0.3,3.8-2.1,4.9-6.2,3.6c1.6-13.5,3.3-27.1,4.9-40.5c1.7-1.3,3.4-0.9,5.6-0.5C689.4,476.6,688.8,481.9,688.1,488z"/>
		<path class="st3" d="M340.5,503.9c1.5,1,2.8,2,4.3,2.8c4.4,2.4,9.7,1.1,11.7-2.9c2.1-4.3,0.4-7.5-5.4-9.6c-4.8-1.8-9.5-3.5-9.3-10
			c0.1-5.6,3-10.1,8.1-12c5.6-2.1,10.6-0.9,14.9,3.8c-1,2.8-2.4,4.1-5.4,1.9c-2.1-1.6-4.6-1.6-7.2-1.1c-2.8,0.6-4.2,2.5-4.8,5.1
			c-0.6,2.7,0.9,4.4,3.2,5.6c1.6,0.8,3.4,1.4,5,2.1c8.1,3.5,9.9,10.8,4.5,17.8c-4.6,5.9-13.5,7.3-19.8,3.2
			C337.4,508.5,336.6,506.5,340.5,503.9z"/>
		<path class="st3" d="M563.3,476.8c-4.2,0-7.5,0-11,0c-0.4-2.6-1.5-5.2,2.4-5.2c8.8-0.1,17.6,0,26.5,0c0.9,3.7,0.2,5.4-3.6,5.3
			c-2.6-0.1-5.3-0.5-8.2,0.5c-1.5,11.6-3,23.2-4.4,34.7c-1.9,1-3.5,0.9-5.8,0.2C560.5,500.7,561.9,489.1,563.3,476.8z"/>
		<path class="st3" d="M440.6,512.2c-2.1,0.6-3.7,0.8-5.6-0.3c1-8.7,2.1-17.6,3.1-26.5c0.2-1.4,1-2.1,2.3-2c1.2,0,2.2,0.4,2.5,1.9
			c0.2,1.1-0.5,2.3,0.7,3.5c2-1.7,3.6-3.8,6.2-4.8c5.9-2.3,10.8,0.4,10.8,6.7c-0.1,6.6-1.1,13.2-2,19.8c-0.4,3.3-3,2.2-5.6,1.9
			c-0.2-5.3,1.1-10.5,1.5-15.7c0.2-3,2.1-7-1.8-8.4c-3.9-1.5-6.2,2.1-8.3,4.9c-2.9,3.8-2.4,8.5-3.1,12.9
			C441.2,508.1,440.9,510,440.6,512.2z"/>
		<path class="st3" d="M575.1,500.8c0-7.8,4.3-14.7,10.7-17c6.7-2.4,12.9,0.8,14.7,7.7c1.7,6.5-1.4,15.2-7,19
			c-4,2.7-8.3,3.5-12.7,1.1C576.5,509.4,575.2,505.4,575.1,500.8z M595.2,495.7c-0.2-3.2,0.1-6.9-4.3-7.8c-4.4-0.9-6.9,1.7-8.6,5.3
			c-1.4,2.9-1.6,6.1-1.4,9.3c0.2,2.5,0.9,4.7,3.5,5.5c2.5,0.8,5,0.4,6.9-1.6C594.1,503.4,595,499.7,595.2,495.7z"/>
		<path class="st3" d="M431.1,494.9c0,6.4-2,11.4-6.6,15.1c-3.8,3-8,4-12.7,2c-4.4-1.8-6.2-5.6-6.4-9.9c-0.3-6.5,1.6-12.2,7-16.2
			c3.9-2.9,8.2-3.8,12.7-1.6C429.8,486.5,431.3,490.6,431.1,494.9z M411,500.3c0.1,3.7,0.3,7.2,4.6,8c4.1,0.8,6.6-1.6,8.2-5
			c1.6-3.3,2.5-6.9,1.5-10.6c-1.3-5.2-6.3-6.7-10.2-3C412,492.5,411.2,496.4,411,500.3z"/>
		<path class="st3" d="M498.4,500.5c-0.3,6.9,4.1,9.8,10.2,7c1.2-0.6,2.2-1.5,3.4-2.1c1-0.6,1.9-0.2,2.6,0.7c0.8,1,0.2,1.8-0.6,2.6
			c-3.9,3.6-8.5,5.2-13.8,3.9c-5.1-1.3-7.1-5.1-7.7-9.9c-1-8.6,4.8-17.6,12.5-19.2c4.8-1,9.7,1.2,10.9,4.9c1.3,4.2-1.1,7.9-6.5,9.6
			C505.8,499,502.1,499.6,498.4,500.5z M499,495.7c3.4,0.8,6.3-0.4,9.2-1.5c2-0.8,3.5-2.3,2.7-4.6c-0.9-2.5-3.1-2.8-5.4-2.1
			C501.7,488.8,499.7,491.6,499,495.7z"/>
		<path class="st3" d="M637.4,500.5c0.3,7.2,4.8,9.9,10.9,6.7c0.9-0.5,1.7-1.1,2.5-1.6c1.1-0.7,2.2-0.7,3,0.5c0.7,1,0.1,1.8-0.6,2.6
			c-3,3.6-10.1,5.3-14.7,3.5c-5.1-2-6.7-6-6.7-11.1c0-8.7,4.7-15.7,11.9-17.6c5.3-1.4,10.4,0.9,11.5,5.1c1.1,4.1-1.3,7.6-6.8,9.3
			C644.8,499,641,499.7,637.4,500.5z M637.9,496c3.9,0.2,6.9-0.6,9.7-1.9c2.1-1,3.2-2.6,2.2-4.8c-0.8-2-2.7-2.3-4.6-1.8
			C641,488.4,639.1,491.5,637.9,496z"/>
		<path class="st3" d="M715.3,500.4c0.2,7.3,4.5,9.9,10.6,7c1-0.5,2-1.2,3-1.8c1-0.6,1.9-0.5,2.7,0.4c0.9,1,0.4,1.7-0.3,2.6
			c-2.5,3.3-9.3,5.3-13.8,4c-4.9-1.4-7.3-4.8-7.8-9.9c-0.8-8.9,4.2-17.1,11.8-19.2c5.3-1.4,10.4,0.8,11.6,5c1.1,4.1-1.4,7.5-6.9,9.4
			c-1.7,0.6-3.5,0.9-5.3,1.3C719.2,499.7,717.4,500,715.3,500.4z M715.9,495.8c3.8,0.6,6.8-0.4,9.6-1.7c2.1-0.9,3.3-2.5,2.3-4.8
			c-0.9-2.2-3-2.5-5.1-1.9C718.9,488.7,716.9,491.5,715.9,495.8z"/>
		<path class="st3" d="M376.3,488.9c-0.6,4.7-1.4,10.1-2,15.6c-0.3,3.4,0.9,3.9,5.8,2.8c1.8,1.8,1.9,3.3-0.7,4.5
			c-2.7,1.2-5.4,1.8-8.1,0.1c-2.7-1.6-2.8-4.3-2.5-7.1c0.5-4.1,0.9-8.3,1.3-12.4c0.2-2,1.1-4.2-2.2-5.1c-1.6-0.4-1.2-2.8,0-3
			c4.7-0.6,4.4-4.3,5.2-7.4c0.6-2.4,1.8-3.5,4.3-2.4c1.1,2.7-0.8,5.2-0.3,8c1.7,1.7,4.2,0.2,6.7,1.5
			C384.6,490.2,378.5,486.3,376.3,488.9z"/>
		<path class="st3" d="M670.4,474.5c0.3,2.9-1.1,5.5-0.2,8.1c1.9,1.5,4.3,0,6.4,1.3c0.6,6.2-5.1,2.4-7.6,4.8
			c-0.6,4.7-1.4,9.9-2,15.2c-0.3,2.8,0.4,4.9,3.8,3.7c1.7-0.6,2.5-0.3,3.1,1.2c0.5,1.5-0.4,2.2-1.5,2.7c-2.6,1.3-5.3,1.9-8.1,0.4
			c-2.7-1.5-3.2-4.1-3-6.9c0.3-3.5,1-6.9,1.2-10.4c0.2-2.7,2.6-6.2-2.3-7.7c-1.4-0.4-0.8-2.8,0.7-2.9c4.1-0.3,3.9-3.5,4.7-6.1
			C666.3,475.8,666.6,473.3,670.4,474.5z"/>
		<path class="st3" d="M519.8,512.2c1.1-9,2.2-17.7,3.2-26.4c0.2-1.6,0.7-2.5,2.4-2.4c1.5,0.1,2.5,0.8,2.5,2.4
			c0,0.9,0.1,1.8,0.2,3.2c3.1-2.7,5.2-7,9.7-5.2c2.2,0.8-0.2,2.9,0.2,4.4c-7.3,1.6-10.1,4.5-11.1,11.9c-0.4,2.8-0.7,5.6-1,8.4
			C525.4,512.8,525.4,512.8,519.8,512.2z"/>
		<path class="st3" d="M746.4,488.3c2.5-2.5,4.6-5.8,9-4.7c1,1.8,0.4,3.3-0.2,4.8c-7.1,1.1-10.1,4.6-11.1,12.8
			c-0.5,3.6-0.9,7.2-1.3,10.7c-1.7,1.2-3.3,1-5.5,0.4c0.7-6.1,1.3-12.3,2-18.4c0.2-2.1,0.5-4.3,0.8-6.4c0.3-1.7-0.2-4,2.6-4
			c2.9,0,2.8,2.3,2.9,4.3c-0.1,0.6-0.3,1.6-0.2,1.6C746.2,489.6,746.1,488.7,746.4,488.3z"/>
		<path class="st3" d="M386.7,512c1.1-8.8,2.2-17.6,3.2-26.4c0.2-1.4,0.6-2.2,2.1-2.2c1.5,0,2.7,0.5,2.8,2.1c0.1,1,0,2,0,3.6
			c3.3-2.7,5.4-6.8,10.1-5.4c1,1.8,0,3.3-0.4,4.8c-6.7,0.9-9.1,3.2-10.6,10.4c-0.6,3.2-1,6.6-1.2,9.9
			C392.6,512.7,390.7,513.5,386.7,512z"/>
		<path class="st4" d="M100.7,477.8c-49.9,0-99.5,0-148.9,0c-1.5-1.9-1-3.8-1-5.5c0-30,0-60-0.1-90c0-3.4,1-5.4,3.7-7.4
			c22.2-16.2,44.3-32.5,66.4-48.9c2.5-1.8,4.1-2.2,6.9-0.1c23.4,17.9,47,35.5,70.6,53.3c1.6,1.2,2.9,2.4,2.9,4.8
			c-0.1,30.7-0.1,61.3-0.1,92C101.1,476.4,100.9,476.9,100.7,477.8z M25.6,389.8c-2.6-1.5-3.4-4.2-4.9-6.3
			c-5.4-7.4-12.9-10-21.5-8.2c-8.6,1.8-14.4,7-16.5,16c-1.5,6.2,0.4,11.5,2.9,16.8c8.4,17.8,23.3,30.1,36.9,43.5
			c2.1,2,3.9,1.6,6-0.4c8.3-7.9,16.5-15.9,24.1-24.5c6.9-7.7,12.8-16.2,15.4-26.5c2.4-9.2-1.4-18-9.5-22.5
			c-8.7-4.8-19.2-3.5-25.8,2.9C29.9,383.4,28.1,386.8,25.6,389.8z"/>
		<path class="st0" d="M673,369c0-9.4,0-18.4,0-27.7c7.5,0,15-0.5,22.3,0.1c7.5,0.7,12.8,7.6,12.2,14.6c-0.5,7.1-6.6,12.8-14.1,13
			C686.8,369.1,680.2,369,673,369z"/>
		<path class="st0" d="M482.7,491.9c0.1,3.8-2.8,7.3-6.1,7.3c-3.1,0-4.4-1.9-4.5-4.8c-0.1-4,2.6-7.3,6-7.3
			C480.8,487,482.7,489,482.7,491.9z"/>
		<path class="st0" d="M475.9,510.1c2,1,5.7-0.9,6,3.2c0.2,3-3.7,5.7-8.1,5.6c-2.6-0.1-5.9-0.3-5.8-3.8
			C468.2,510.2,472.4,510.6,475.9,510.1z"/>
		<path class="st0" d="M611.2,494.3c0.1-4.2,3-7.5,6.3-7.3c3.1,0.2,4.3,2.1,4.4,4.9c0.1,3.9-2.7,7.1-6,7.2
			C612.4,499.2,611.5,496.8,611.2,494.3z"/>
		<path class="st0" d="M614.8,510.1c2,1.1,6.1-1,6.1,3.1c0,4.4-3.9,5.5-7.5,5.6c-2.8,0.1-6.4,0-6.3-3.9
			C607.3,510.3,611.5,510.8,614.8,510.1z"/>
		<path class="st0" d="M595.2,495.7c-0.1,4-1,7.7-3.9,10.6c-1.9,2-4.3,2.5-6.9,1.6c-2.6-0.8-3.3-3.1-3.5-5.5c-0.2-3.2,0-6.3,1.4-9.3
			c1.7-3.6,4.2-6.2,8.6-5.3C595.2,488.8,595,492.5,595.2,495.7z"/>
		<path class="st0" d="M411,500.3c0.1-3.9,1-7.7,4.1-10.7c3.9-3.7,9-2.1,10.2,3c0.9,3.7,0,7.3-1.5,10.6c-1.6,3.4-4.1,5.8-8.2,5
			C411.4,507.4,411.1,504,411,500.3z"/>
		<path class="st0" d="M499,495.7c0.7-4.1,2.7-6.9,6.5-8.2c2.2-0.7,4.5-0.4,5.4,2.1c0.8,2.3-0.6,3.8-2.7,4.6
			C505.3,495.3,502.4,496.5,499,495.7z"/>
		<path class="st0" d="M637.9,496c1.2-4.5,3.1-7.5,7.3-8.6c1.9-0.5,3.8-0.1,4.6,1.8c0.9,2.2-0.1,3.9-2.2,4.8
			C644.8,495.4,641.8,496.2,637.9,496z"/>
		<path class="st0" d="M715.9,495.8c1-4.3,3-7.1,6.9-8.3c2.1-0.6,4.1-0.3,5.1,1.9c1,2.3-0.3,3.9-2.3,4.8
			C722.7,495.3,719.7,496.4,715.9,495.8z"/>
		<path class="st0" d="M746.4,488.3c-0.3,0.4-0.2,1.3-1,0.9c-0.1-0.1,0.1-1.1,0.2-1.6C745.9,487.9,746.1,488.1,746.4,488.3z"/>
		<path class="st0" d="M25.6,389.8c2.4-3,4.2-6.4,7-9.1c6.6-6.5,17.1-7.7,25.8-2.9c8.1,4.5,11.9,13.2,9.5,22.5
			c-2.6,10.2-8.5,18.7-15.4,26.5c-7.6,8.6-15.8,16.6-24.1,24.5c-2.1,2-4,2.4-6,0.4c-13.6-13.4-28.5-25.7-36.9-43.5
			c-2.5-5.3-4.3-10.6-2.9-16.8c2.1-9,8-14.2,16.5-16c8.6-1.8,16.1,0.8,21.5,8.2C22.3,385.6,23.1,388.3,25.6,389.8z"/>
	</g>
</g>
</svg>
