<?xml version="1.0" encoding="utf-8"?>
<!-- Generator: Adobe Illustrator 19.0.0, SVG Export Plug-In . SVG Version: 6.00 Build 0)  -->
<svg version="1.1" id="Layer_1" xmlns="http://www.w3.org/2000/svg" xmlns:xlink="http://www.w3.org/1999/xlink" x="0px" y="0px"
	 viewBox="0 0 612 792" style="enable-background:new 0 0 612 792;" xml:space="preserve">
<style type="text/css">
	.st0{fill:#5BCDF9;}
	.st1{fill:#FEFEFE;}
	.st2{fill:#F4A8B7;}
</style>
<g>
	<g>
		<path class="st0" d="M305.2,296.2c0.2,0,0.3,0,0.5,0c0.1,0.2,0.2,0.4,0.4,0.5c2.7,1.9,5,4.3,7.6,6.2c5.7,4.3,11.3,8.7,17,13
			c6.6,5,13.1,10.2,19.8,15.1c5.4,4,10.6,8.2,16,12.3c4.7,3.6,9.4,7.2,14.1,10.8c5.2,4,10.4,8.1,15.6,12.1
			c7.1,5.5,14.3,10.9,21.4,16.4c6.5,5,12.9,9.9,19.4,14.9c2.4,1.8,4.7,3.7,7.1,5.5c1.3,0.9,1.2,1,0.1,2.2c-1.6,1.7-3.1,3.5-4.8,5.2
			c-4.2,4.3-8.2,8.7-12.4,13.1c-1.3,1.3-1.3,1.3-2.8,0.2c-0.1,0-0.1-0.1-0.2-0.2c-5.5-4-11-8-16.6-12c-2.2-1.6-4.6-3-7-4.5
			c0,0.6,0,1,0,1.4c0.1,20.3-0.2,40.6,0.2,60.9c0.2,7.5,0,15,0,22.5c0,1.3,0.1,2.6-0.2,3.8c-62.6,0-125.2,0-187.8,0
			c0-30.1,0-60.2,0-90.6c-3.6,2.3-7.1,4.4-10.4,6.7c-5.4,3.8-10.8,7.8-16.2,11.8c-0.8,0.6-1.2,0.4-1.8-0.3c-3.1-3.5-6.2-7-9.4-10.4
			c-1.6-1.7-3.3-3.4-4.8-5.2c-1.2-1.4-2.3-3-3.9-4.1c0-0.5,0-1,0-1.4c0.6-0.3,1.3-0.6,1.9-1c2.4-1.8,4.7-3.6,7.1-5.4
			c12.2-9.3,24.3-18.6,36.5-27.9c0.7-0.6,1.1-1.1,1.1-2.1c0-15.6,0-31.2,0-46.8c0-1,0.2-1.4,1.3-1.4c9.1,0,18.2,0,27.3,0
			c1,0,1.3,0.3,1.3,1.3c-0.2,3.8,0,7.5-0.2,11.3c-0.2,4.4-0.1,8.7-0.1,13.1c0,0.3-0.1,0.6,0.2,0.8c2.4-1.8,4.8-3.7,7.3-5.4
			c4.5-3.2,8.5-6.9,13-10c3.8-2.6,7.4-5.5,11-8.3c7.8-6,15.7-12,23.5-18C300,300.3,302.8,298.6,305.2,296.2z M242.3,424.7
			c0,13.8,0,27.6,0,41.4c0,1,0.2,1.4,1.3,1.4c20.6,0.1,41.2-0.1,61.8,0.2c21.3,0.3,42.5,0.1,63.8,0.1c1.6,0,1.6,0,1.6-1.5
			c0-18.9,0-37.9,0-56.8c0-7.6,0-15.3,0-22.9c0-0.7-0.1-1.1-0.7-1.6c-3-2.2-6-4.5-9-6.8c-8.1-6.1-16.2-12.2-24.2-18.3
			c-7-5.3-14-10.7-21.1-15.9c-3.3-2.5-6.6-5.2-10.1-7.4c-0.6-0.4-0.8-0.2-1.2,0.1c-6.4,4.7-12.7,9.4-19.1,14.1
			c-5.7,4.2-11.5,8.4-17.2,12.7c-8.2,6.1-16.5,12.2-24.7,18.2c-0.7,0.5-1,1.1-1,2C242.3,397.3,242.3,411,242.3,424.7z"/>
		<path class="st1" d="M400.5,495.6c0.3-1.3,0.2-2.5,0.2-3.8c0-7.5,0.1-15,0-22.5c-0.4-20.3-0.1-40.6-0.2-60.9c0-0.4,0-0.9,0-1.4
			c2.4,1.5,4.7,2.9,7,4.5c5.6,3.9,11.1,8,16.6,12c0.1,0,0.1,0.1,0.2,0.2c1.5,1.1,1.5,1.2,2.8-0.2c4.1-4.3,8.1-8.8,12.4-13.1
			c1.6-1.7,3.2-3.5,4.8-5.2c1.1-1.2,1.2-1.2-0.1-2.2c-2.5-1.7-4.8-3.6-7.1-5.5c-6.5-5-12.9-9.9-19.4-14.9
			c-7.1-5.5-14.3-10.9-21.4-16.4c-5.2-4-10.4-8.1-15.6-12.1c-4.7-3.6-9.4-7.2-14.1-10.8c-5.3-4.1-10.6-8.3-16-12.3
			c-6.7-4.9-13.2-10.1-19.8-15.1c-5.7-4.3-11.3-8.8-17-13c-2.6-2-4.9-4.3-7.6-6.2c-0.2-0.1-0.2-0.3-0.4-0.5c46.2,0,92.4,0,138.6,0
			c0.9,0,1.1,0.2,1.1,1.1c0,65.7,0,131.5,0,197.2c0,0.9-0.2,1.1-1.1,1.1C429.7,495.6,415.1,495.6,400.5,495.6z"/>
		<path class="st1" d="M305.2,296.2c-2.4,2.3-5.2,4.1-7.8,6.1c-7.8,6-15.6,12-23.5,18c-3.7,2.8-7.2,5.7-11,8.3
			c-4.5,3.1-8.6,6.9-13,10c-2.5,1.8-4.9,3.6-7.3,5.4c-0.3-0.3-0.2-0.6-0.2-0.8c0-4.4-0.2-8.8,0.1-13.1c0.2-3.8,0-7.5,0.2-11.3
			c0-1-0.3-1.3-1.3-1.3c-9.1,0-18.2,0-27.3,0c-1.1,0-1.3,0.3-1.3,1.4c0,15.6,0,31.2,0,46.8c0,1-0.3,1.5-1.1,2.1
			c-12.2,9.3-24.3,18.6-36.5,27.9c-2.4,1.8-4.7,3.6-7.1,5.4c-0.6,0.4-1.2,0.7-1.9,1c0-35,0-69.9,0-104.9c0-0.9,0.2-1.1,1.1-1.1
			C213.3,296.2,259.2,296.2,305.2,296.2z"/>
		<path class="st1" d="M166.2,403.6c1.5,1.1,2.6,2.7,3.9,4.1c1.6,1.8,3.2,3.4,4.8,5.2c3.2,3.4,6.2,6.9,9.4,10.4
			c0.6,0.7,1,0.9,1.8,0.3c5.4-4,10.7-7.9,16.2-11.8c3.3-2.3,6.8-4.4,10.4-6.7c0,30.4,0,60.5,0,90.6c-15.2,0-30.3,0-45.5,0
			c-0.9,0-1-0.3-1-1.1C166.2,464.3,166.2,434,166.2,403.6z"/>
		<path class="st2" d="M242.3,424.7c0-13.7,0-27.5,0-41.2c0-0.9,0.3-1.4,1-2c8.3-6.1,16.5-12.1,24.7-18.2
			c5.7-4.2,11.5-8.4,17.2-12.7c6.4-4.7,12.8-9.4,19.1-14.1c0.4-0.3,0.6-0.4,1.2-0.1c3.5,2.3,6.7,4.9,10.1,7.4
			c7.1,5.3,14.1,10.6,21.1,15.9c8.1,6.1,16.2,12.2,24.2,18.3c3,2.3,6,4.6,9,6.8c0.6,0.5,0.7,0.9,0.7,1.6c0,7.6,0,15.3,0,22.9
			c0,18.9,0,37.9,0,56.8c0,1.5,0,1.5-1.6,1.5c-21.3,0-42.5,0.2-63.8-0.1c-20.6-0.3-41.2-0.1-61.8-0.2c-1.1,0-1.3-0.4-1.3-1.4
			C242.3,452.3,242.3,438.5,242.3,424.7z M287.9,379.8c-1.3-0.1-2.5,0.1-3.7,0.3c-4.1,1-7.9,2.7-10.8,6c-2.9,3.3-4.1,7.3-4.2,11.6
			c-0.1,2.5,0.7,5,1.6,7.4c1.7,4.4,4.1,8.5,6.8,12.3c3.3,4.5,6.9,8.8,10.8,12.8c5.3,5.5,10.8,10.7,16.4,15.9c0.8,0.7,1.5,0.9,2.2,0
			c0.3-0.3,0.6-0.6,0.9-0.8c3.7-3.2,7.3-6.6,10.7-10.1c3.2-3.2,6.4-6.4,9.3-9.9c3-3.6,6.2-7,8.6-11c2.3-3.7,4.1-7.6,5.4-11.7
			c0.6-1.8,1.1-3.7,1.1-5.6c0-1.6-0.4-3.2-0.9-4.8c-1.1-3.4-2.9-6.4-5.9-8.4c-4.4-2.9-9.1-4.5-14.5-3.6c-2.8,0.4-5.5,1.3-7.8,3.2
			c-3,2.5-5.3,5.5-7.1,8.9c-0.2,0.4-0.1,1-0.7,1c-0.7,0.1-0.8-0.6-1.1-1c-1.3-2.1-2.5-4.3-4.2-6.2c-1.6-1.7-3.3-3.4-5.4-4.5
			C293.2,380.3,290.6,379.9,287.9,379.8z"/>
		<path class="st1" d="M287.9,379.8c2.6,0.1,5.3,0.5,7.6,1.7c2.1,1.1,3.8,2.8,5.4,4.5c1.7,1.9,2.9,4.1,4.2,6.2
			c0.3,0.4,0.4,1.1,1.1,1c0.6-0.1,0.5-0.7,0.7-1c1.8-3.4,4.1-6.5,7.1-8.9c2.2-1.9,4.9-2.7,7.8-3.2c5.3-0.8,10.1,0.7,14.5,3.6
			c3,2,4.8,5,5.9,8.4c0.5,1.6,0.9,3.2,0.9,4.8c0,1.9-0.5,3.8-1.1,5.6c-1.3,4.1-3.1,8-5.4,11.7c-2.5,4-5.6,7.4-8.6,11
			c-2.9,3.5-6.1,6.7-9.3,9.9c-3.5,3.5-7,6.9-10.7,10.1c-0.3,0.3-0.6,0.5-0.9,0.8c-0.7,0.9-1.4,0.8-2.2,0
			c-5.6-5.2-11.1-10.4-16.4-15.9c-3.9-4-7.5-8.3-10.8-12.8c-2.8-3.8-5.1-7.9-6.8-12.3c-0.9-2.4-1.6-5-1.6-7.4
			c0.1-4.2,1.3-8.2,4.2-11.6c2.9-3.3,6.7-5,10.8-6C285.4,379.9,286.6,379.6,287.9,379.8z"/>
	</g>
</g>
</svg>
